<svg  id="icon-user" xmlns="http://www.w3.org/2000/svg" xmlns:xlink="http://www.w3.org/1999/xlink" 
version="1.1" x="0px" y="0px" viewBox="0 0 150 150" width="250" height="250" enable-background="new 0 0 100 100" xml:space="preserve"><g>

<path style="fill: #F6DEFC;" d="M60.518,78.097c-0.66-0.387-1.512-0.167-1.91,0.486c-0.076,0.125-1.935,3.073-7.658,3.073   
c-5.719,0-7.578-2.948-7.645-3.058c-0.383-0.67-1.238-0.902-1.907-0.519c-0.67,0.383-0.902,1.237-0.519,1.907   
c0.104,0.182,2.64,4.465,10.071,4.465c7.436,0,9.971-4.283,10.075-4.466C61.406,79.323,61.177,78.486,60.518,78.097z"/>

<path style="fill: #F6DEFC;" d="M95.616,44.12c-1.552-2.531-3.703-3.982-5.902-3.982c-1.499,0-2.875,0.705-3.868,1.98c-0.252,0.32-0.54,0.753-0.852,1.279   
c-4.912-18.979-19.301-33.339-34.022-33.339c-14.729,0-29.131,14.368-34.054,33.353c-0.312-0.528-0.6-0.964-0.851-1.286   
c-0.999-1.281-2.375-1.986-3.874-1.986c-2.199,0-4.352,1.451-5.907,3.981c-2.492,4.06-2.62,9.57-0.293,12.543   
c1.434,1.838,6.251,5.582,10.137,6.671C19.695,79.51,33.57,90.31,50.939,90.31c17.371,0,31.254-10.798,34.831-26.97   
c3.877-1.089,8.701-4.835,10.144-6.677C98.241,53.68,98.11,48.17,95.616,44.12z M93.712,54.941   
c-1.294,1.652-6.247,5.344-9.354,5.856l-0.959,0.158l-0.186,0.953c-2.992,15.315-15.962,25.605-32.274,25.605   
c-16.31,0-29.271-10.292-32.252-25.61l-0.186-0.954l-0.959-0.158c-3.117-0.514-8.06-4.2-9.348-5.85   
c-1.602-2.047-1.385-6.333,0.472-9.359c1.004-1.634,2.355-2.649,3.526-2.649c0.637,0,1.199,0.306,1.67,0.91   
c0.41,0.526,1.261,1.948,2.311,4.23l1.84,3.998l0.803-4.328c3.632-19.564,17.756-34.89,32.154-34.89   
c14.392,0,28.502,15.321,32.122,34.879l0.804,4.343l1.84-4.015c1.046-2.279,1.894-3.693,2.307-4.217   
c1.335-1.713,3.64-0.785,5.189,1.74C95.094,48.604,95.312,52.89,93.712,54.941z"/>

<path style="fill: #F6DEFC;" d="M36.823,49.268c-2.732,0-4.955,2.226-4.955,4.962c0,2.73,2.223,4.952,4.955,4.952c2.732,0,4.956-2.222,4.956-4.952   
C41.779,51.494,39.555,49.268,36.823,49.268z M36.823,56.386c-1.191,0-2.159-0.967-2.159-2.156c0-1.194,0.968-2.166,2.159-2.166   
c1.191,0,2.16,0.971,2.16,2.166C38.983,55.419,38.014,56.386,36.823,56.386z"/>

<path style="fill: #F6DEFC;" d="M65.083,49.268c-2.733,0-4.956,2.226-4.956,4.962c0,2.73,2.223,4.952,4.956,4.952s4.956-2.222,4.956-4.952   
C70.039,51.494,67.815,49.268,65.083,49.268z M65.083,56.386c-1.191,0-2.16-0.967-2.16-2.156c0-1.194,0.969-2.166,2.16-2.166   
c1.191,0,2.16,0.971,2.16,2.166C67.242,55.419,66.274,56.386,65.083,56.386z"/>

<path style="fill: #F6DEFC;" d="M50.951,66.576c2.659,0,5.109-1.242,6.722-3.405c0.461-0.619,0.333-1.495-0.285-1.956   
c-0.618-0.461-1.494-0.333-1.956,0.285c-1.08,1.45-2.713,2.28-4.481,2.28c-1.763,0-3.397-0.831-4.482-2.282   
c-0.463-0.618-1.339-0.745-1.956-0.282c-0.618,0.462-0.744,1.338-0.282,1.956C45.848,65.335,48.298,66.576,50.951,66.576z"/></g>

</svg>