<svg  id="icon-user" xmlns="http://www.w3.org/2000/svg" xmlns:xlink="http://www.w3.org/1999/xlink" version="1.1" x="0px" y="0px" viewBox="0 0 150 150" width="250" height="250"  xml:space="preserve"><g>

<path style="fill: #F6DEFC;" d="M95.611,44.072c-1.553-2.527-3.704-3.977-5.901-3.977c-1.499,0-2.875,0.705-3.872,1.983   
c-0.253,0.322-0.541,0.755-0.853,1.28c-4.907-18.98-19.295-33.343-34.02-33.343c-14.729,0-29.13,14.365-34.052,33.349   
c-0.312-0.528-0.6-0.963-0.851-1.283c-1-1.281-2.375-1.987-3.875-1.987c-2.197,0-4.349,1.449-5.907,3.978   
c-2.489,4.059-2.618,9.57-0.293,12.544c1.435,1.839,6.253,5.584,10.138,6.675c3.565,16.172,17.44,26.971,34.811,26.971   
c17.371,0,31.254-10.798,34.831-26.97c3.877-1.089,8.701-4.834,10.146-6.677C98.235,53.635,98.103,48.125,95.611,44.072z    
M93.709,54.895c-1.296,1.652-6.249,5.344-9.356,5.856l-0.959,0.158l-0.186,0.953c-2.991,15.315-15.961,25.605-32.274,25.605   
c-16.311,0-29.272-10.289-32.252-25.604l-0.186-0.953l-0.958-0.158c-3.115-0.516-8.061-4.205-9.349-5.855   
c-1.6-2.047-1.383-6.335,0.472-9.36c1.005-1.632,2.356-2.646,3.526-2.646c0.637,0,1.199,0.306,1.673,0.914   
c0.408,0.52,1.258,1.939,2.307,4.223l1.84,4.004l0.804-4.333c3.631-19.563,17.754-34.887,32.153-34.887   
c14.394,0,28.502,15.32,32.118,34.879l0.802,4.334l1.843-4.003c1.046-2.273,1.898-3.692,2.312-4.219   
c1.334-1.713,3.639-0.788,5.19,1.734C95.088,48.558,95.306,52.846,93.709,54.895z"/>

<path style="fill: #F6DEFC;" d="M40.776,51.231l2.807-0.581c0.756-0.157,1.241-0.897,1.085-1.653c-0.157-0.755-0.889-1.241-1.653-1.085l-6.497,1.345   
c-0.491,0.03-0.961,0.127-1.404,0.291l-5.059,1.048c-0.756,0.156-1.242,0.896-1.086,1.652c0.137,0.66,0.718,1.115,1.368,1.115   
c0.093,0,0.189-0.009,0.284-0.029l1.387-0.287c-0.087,0.367-0.144,0.744-0.144,1.137c0,2.733,2.224,4.956,4.956,4.956   
c2.732,0,4.955-2.223,4.955-4.956C41.775,53.073,41.395,52.058,40.776,51.231z M36.82,56.342c-1.191,0-2.16-0.969-2.16-2.16   
c0-0.856,0.504-1.591,1.228-1.94l1.019-0.211c1.15,0.047,2.072,0.99,2.072,2.151C38.979,55.374,38.011,56.342,36.82,56.342z"/>

<path style="fill: #F6DEFC;" d="M71.841,50.596l-5.055-1.047c-0.444-0.164-0.916-0.262-1.409-0.292l-6.496-1.345c-0.759-0.16-1.495,0.329-1.652,1.085   
c-0.156,0.756,0.329,1.495,1.085,1.652l2.808,0.581c-0.619,0.827-0.998,1.842-0.998,2.952c0,2.733,2.223,4.956,4.955,4.956   
c2.732,0,4.956-2.223,4.956-4.956c0-0.393-0.057-0.77-0.144-1.136l1.386,0.287c0.096,0.02,0.19,0.029,0.284,0.029   
c0.649,0,1.231-0.455,1.368-1.115C73.083,51.491,72.597,50.752,71.841,50.596z M65.078,56.342c-1.191,0-2.159-0.969-2.159-2.16   
c0-1.161,0.922-2.104,2.071-2.151l1.02,0.211c0.723,0.349,1.228,1.084,1.228,1.94C67.237,55.374,66.269,56.342,65.078,56.342z"/>

<path style="fill: #F6DEFC;" d="M60.327,77.951c-0.189-0.076-4.688-1.853-9.381-1.853c-4.687,0-9.187,1.778-9.376,1.853   
c-0.716,0.287-1.065,1.099-0.779,1.815c0.219,0.547,0.744,0.881,1.299,0.881c0.172,0,0.347-0.032,0.517-0.1   
c0.042-0.016,4.203-1.654,8.339-1.654c4.142,0,8.302,1.637,8.344,1.654c0.715,0.285,1.529-0.064,1.816-0.78   
C61.391,79.05,61.043,78.238,60.327,77.951z"/>

<path style="fill: #F6DEFC;" d="M44.224,63.123c1.614,2.167,4.065,3.41,6.722,3.41c2.664,0,5.115-1.243,6.724-3.411c0.461-0.62,0.331-1.495-0.289-1.955   
c-0.619-0.462-1.495-0.331-1.955,0.289c-1.077,1.45-2.709,2.282-4.479,2.282c-1.766,0-3.399-0.832-4.481-2.283   
c-0.461-0.619-1.337-0.748-1.956-0.286C43.89,61.629,43.762,62.505,44.224,63.123z"/></g></svg>